<svg width="15" height="15" viewBox="0 0 15 15" fill="none" xmlns="http://www.w3.org/2000/svg">
<path id="Vector" d="M3.97097 0.983608C3.63923 0.997959 3.32083 1.15673 3.13923 1.39751C2.96697 1.62416 2.9459 1.89228 3.01577 1.99547L6.7307 7.53747C6.8115 7.65752 6.76243 7.81151 6.62403 7.88144C6.57657 7.90422 6.5267 7.9147 6.47817 7.9147C6.37657 7.9147 6.27817 7.86982 6.22403 7.78873L2.81577 2.70619C2.67817 2.50094 2.40163 2.37999 2.0851 2.39775C1.75017 2.41324 1.43257 2.57088 1.25177 2.81074C1.0795 3.03854 1.05843 3.30642 1.1283 3.40848L4.6835 8.71335C4.7643 8.8343 4.71577 8.98715 4.57683 9.05732C4.52937 9.08101 4.4795 9.09035 4.43097 9.09035C4.32937 9.09035 4.23097 9.04547 4.17683 8.96483L1.64777 5.24883C1.59764 5.23106 1.48777 5.21192 1.28377 5.22263C1.0811 5.23311 0.804568 5.36978 0.645101 5.57617C0.499234 5.76615 0.478434 5.98688 0.589368 6.15271L4.78937 12.4196C5.4587 13.4162 6.04937 13.6203 6.6211 13.8184C7.0659 13.9729 7.5243 14.1353 7.9283 14.6308L13.7142 11.7539C13.6574 11.3291 13.8419 10.6006 14.1283 9.53659L14.1752 9.36484C14.4518 8.27985 14.2086 7.59214 13.9283 6.79623C13.7326 6.24178 13.5294 5.66888 13.4726 4.906C13.4726 4.73629 13.4782 4.59415 13.4835 4.46453C13.4907 4.2463 13.5016 3.97341 13.4558 3.9119C12.9907 3.92375 12.6334 4.03286 12.3875 4.25109C12.0832 4.51692 11.9366 4.95474 11.9499 5.54792L12.1531 7.20877C12.1822 7.44863 11.7696 7.60285 11.6083 7.36184L7.5491 1.30411C7.41017 1.09864 7.12403 0.979963 6.81683 0.996592C6.4835 1.01094 6.1643 1.16972 5.98243 1.40935C5.8115 1.63487 5.7907 1.90185 5.9251 2.10595L8.93763 6.59782C9.01843 6.71878 8.9699 6.87323 8.83097 6.94179C8.7835 6.96548 8.73363 6.97596 8.6851 6.97596C8.5835 6.97596 8.4851 6.93109 8.43097 6.85045L4.63497 1.19022C4.5667 1.08794 4.2891 0.969257 3.97097 0.983608Z" fill="white"/>
</svg>
