<svg width="22" height="13" viewBox="0 0 22 13" fill="none" xmlns="http://www.w3.org/2000/svg">
<path id="Vector" d="M11 0C6 0 1.73 2.55038 0 6.15044C1.73 9.7505 6 12.3009 11 12.3009C16.005 12.3009 20.27 9.7505 22 6.15044C20.27 2.55038 16.005 0 11 0ZM11 10.2507C8.24 10.2507 6 8.41381 6 6.15044C6 3.88708 8.24 2.05015 11 2.05015C13.76 2.05015 16 3.88708 16 6.15044C16 8.41381 13.76 10.2507 11 10.2507ZM11 3.69027C9.345 3.69027 8 4.79324 8 6.15044C8 7.50764 9.345 8.61062 11 8.61062C12.655 8.61062 14 7.50764 14 6.15044C14 4.79324 12.655 3.69027 11 3.69027Z" fill="white"/>
</svg>
