<svg width="22" height="11" viewBox="0 0 22 11" fill="none" xmlns="http://www.w3.org/2000/svg">
<path id="Vector" d="M20.9406 6.22336L15.2324 9.06099L15.5641 9.55622C15.9822 10.179 16.3252 10.2788 16.5782 10.2965C16.9241 10.3166 17.375 10.1827 18.075 9.83344L20.2974 8.7291C20.9974 8.38034 21.3598 8.1161 21.51 7.84275C21.6198 7.64616 21.6908 7.34092 21.2724 6.71722L20.9406 6.22336ZM2.90329 0.853568C2.68089 1.06587 2.58516 1.37317 2.65422 1.65449C2.71982 1.91919 2.92516 2.12079 3.05849 2.15154L7.61849 3.20395C7.77422 3.23948 7.86702 3.37753 7.82409 3.51261C7.79076 3.62423 7.67102 3.69849 7.54169 3.69849C7.51662 3.69849 7.49156 3.69621 7.46676 3.68915L1.52089 2.31737C1.38649 2.28662 1.09076 2.37341 0.882223 2.57501C0.659823 2.78731 0.564089 3.09483 0.632089 3.3773C0.697156 3.64063 0.962223 3.85293 1.09556 3.88414L1.62462 4.01102C1.62622 4.01102 1.62889 4.01102 1.63182 4.01193C1.63289 4.01193 1.63289 4.01193 1.63289 4.01193L6.83022 5.21059C6.98596 5.24749 7.07876 5.38508 7.03689 5.51902C7.00249 5.63155 6.88436 5.70672 6.75502 5.70672C6.72996 5.70672 6.70356 5.70399 6.67849 5.69693L1.47822 4.49714C1.21422 4.43791 0.918223 4.5247 0.708356 4.72493C0.486489 4.93723 0.390756 5.24453 0.459823 5.52585C0.524889 5.78918 0.864089 6.02336 0.997423 6.05388L6.34889 7.28761C6.50409 7.32315 6.59742 7.46119 6.55556 7.59628C6.52062 7.70881 6.40302 7.78215 6.27369 7.78215C6.24862 7.78215 6.22222 7.78124 6.19716 7.77418L2.79076 6.98852C2.69182 7.02406 2.59742 7.07759 2.51689 7.15481C2.32836 7.33955 2.24596 7.60516 2.30329 7.84753C2.35422 8.06963 2.52089 8.23865 2.62942 8.26531L10.9326 10.1811C11.9502 10.4159 12.3518 10.371 13.2977 10.0378C13.7812 9.85987 14.2812 9.67831 15.091 9.85258C15.0796 9.83709 15.0686 9.8241 15.0577 9.80724L14.5462 9.04459C14.2185 8.56713 13.8588 8.44299 13.4036 8.28512C12.802 8.07738 12.0545 7.81746 11.2838 6.67143L7.87662 1.58684C7.86249 1.58547 7.84756 1.58912 7.83342 1.58547L3.67662 0.625774C3.60996 0.610284 3.54062 0.604361 3.40436 0.608917C3.26676 0.615067 3.06169 0.701857 2.90329 0.852201V0.853568Z" fill="white"/>
</svg>
